<?xml version="1.0" encoding="utf-8"?>
<!-- Generator: Adobe Illustrator 23.0.1, SVG Export Plug-In . SVG Version: 6.00 Build 0)  -->
<svg version="1.1" id="Layer_1" xmlns="http://www.w3.org/2000/svg" xmlns:xlink="http://www.w3.org/1999/xlink" x="0px" y="0px"
	 viewBox="0 0 144.23 76.69" style="enable-background:new 0 0 144.23 76.69;" xml:space="preserve">
<style type="text/css">
	.st0{fill:#FFACA1;}
</style>
<g>
	<path class="st0" d="M42.35,6.58c1.82,0,3.29-1.47,3.29-3.29S44.17,0,42.35,0s-3.29,1.47-3.29,3.29S40.53,6.58,42.35,6.58z"/>
	<path class="st0" d="M33.41,17.87c1.82,0,3.29-1.47,3.29-3.29s-1.47-3.29-3.29-3.29s-3.29,1.47-3.29,3.29
		C30.11,16.4,31.59,17.87,33.41,17.87z"/>
	<path class="st0" d="M20.7,21.17c1.82,0,3.29-1.47,3.29-3.29s-1.47-3.29-3.29-3.29s-3.29,1.47-3.29,3.29
		C17.41,19.69,18.88,21.17,20.7,21.17z"/>
	<circle class="st0" cx="3.29" cy="28.23" r="3.29"/>
	<path class="st0" d="M20.7,33.4c0-1.82-1.47-3.29-3.29-3.29s-3.29,1.47-3.29,3.29s1.47,3.29,3.29,3.29
		C19.23,36.7,20.7,35.22,20.7,33.4z"/>
	<circle class="st0" cx="40" cy="26.82" r="3.29"/>
	<path class="st0" d="M33.64,34.82c0-1.82-1.47-3.29-3.29-3.29s-3.29,1.47-3.29,3.29s1.47,3.29,3.29,3.29S33.64,36.64,33.64,34.82z"
		/>
	<path class="st0" d="M42.35,14.58c0,1.82,1.47,3.29,3.29,3.29s3.29-1.47,3.29-3.29s-1.47-3.29-3.29-3.29S42.35,12.76,42.35,14.58z"
		/>
	<circle class="st0" cx="56.47" cy="11.29" r="3.29"/>
	<path class="st0" d="M56.47,24.46c1.82,0,3.29-1.47,3.29-3.29s-1.47-3.29-3.29-3.29s-3.29,1.47-3.29,3.29
		C53.17,22.99,54.65,24.46,56.47,24.46z"/>
	<circle class="st0" cx="43.29" cy="39.05" r="3.29"/>
	<path class="st0" d="M33.41,53.17c-1.82,0-3.29,1.47-3.29,3.29s1.47,3.29,3.29,3.29s3.29-1.47,3.29-3.29S35.23,53.17,33.41,53.17z"
		/>
	<circle class="st0" cx="24" cy="47.99" r="3.29"/>
	<path class="st0" d="M6.59,39.05c-1.82,0-3.29,1.47-3.29,3.29s1.47,3.29,3.29,3.29s3.29-1.47,3.29-3.29
		C9.88,40.53,8.4,39.05,6.59,39.05z"/>
	<path class="st0" d="M6.59,53.17c-1.82,0-3.29,1.47-3.29,3.29s1.47,3.29,3.29,3.29s3.29-1.47,3.29-3.29S8.4,53.17,6.59,53.17z"/>
	<circle class="st0" cx="20" cy="59.76" r="3.29"/>
	<circle class="st0" cx="44.47" cy="56.46" r="3.29"/>
	<path class="st0" d="M40.23,62.11c-1.82,0-3.29,1.47-3.29,3.29s1.47,3.29,3.29,3.29s3.29-1.47,3.29-3.29
		C43.53,63.58,42.05,62.11,40.23,62.11z"/>
	<path class="st0" d="M50.7,50.54c1.54-0.97,2-3.01,1.03-4.54s-3.01-2-4.54-1.03s-2,3.01-1.03,4.54
		C47.12,51.05,49.16,51.51,50.7,50.54z"/>
	<path class="st0" d="M53.18,53.68c-1.54,0.97-2,3.01-1.03,4.54c0.97,1.54,3.01,2,4.54,1.03c1.54-0.97,2-3.01,1.03-4.54
		S54.72,52.71,53.18,53.68z"/>
	<path class="st0" d="M56.47,39.05c-1.82,0-3.29,1.47-3.29,3.29s1.47,3.29,3.29,3.29s3.29-1.47,3.29-3.29
		C59.76,40.53,58.29,39.05,56.47,39.05z"/>
	<path class="st0" d="M46.59,31.52c0,1.82,1.47,3.29,3.29,3.29s3.29-1.47,3.29-3.29s-1.47-3.29-3.29-3.29S46.59,29.7,46.59,31.52z"
		/>
	<path class="st0" d="M63.06,36.7c1.82,0,3.29-1.47,3.29-3.29s-1.47-3.29-3.29-3.29s-3.29,1.47-3.29,3.29
		C59.76,35.22,61.24,36.7,63.06,36.7z"/>
	<circle class="st0" cx="71.53" cy="15.05" r="3.29"/>
	<circle class="st0" cx="36.94" cy="47.99" r="3.29"/>

		<ellipse transform="matrix(0.1602 -0.9871 0.9871 0.1602 33.5513 88.3548)" class="st0" cx="68.7" cy="24.46" rx="3.29" ry="3.29"/>
	<path class="st0" d="M78.11,34.82c1.82,0,3.29-1.47,3.29-3.29s-1.47-3.29-3.29-3.29s-3.29,1.47-3.29,3.29S76.3,34.82,78.11,34.82z"
		/>
	<path class="st0" d="M68.7,39.05c-1.82,0-3.29,1.47-3.29,3.29s1.47,3.29,3.29,3.29s3.29-1.47,3.29-3.29
		C72,40.53,70.52,39.05,68.7,39.05z"/>
	<path class="st0" d="M65.41,49.87c-1.82,0-3.29,1.47-3.29,3.29s1.47,3.29,3.29,3.29s3.29-1.47,3.29-3.29
		C68.7,51.35,67.23,49.87,65.41,49.87z"/>
	<circle class="st0" cx="63.06" cy="63.05" r="3.29"/>
	<path class="st0" d="M54.35,63.52c-1.82,0-3.29,1.47-3.29,3.29s1.47,3.29,3.29,3.29s3.29-1.47,3.29-3.29
		C57.64,65,56.17,63.52,54.35,63.52z"/>
	<path class="st0" d="M47.76,70.11c-1.82,0-3.29,1.47-3.29,3.29s1.47,3.29,3.29,3.29s3.29-1.47,3.29-3.29
		C51.06,71.58,49.58,70.11,47.76,70.11z"/>
	<path class="st0" d="M74.82,54.58c-1.82,0-3.29,1.47-3.29,3.29s1.47,3.29,3.29,3.29s3.29-1.47,3.29-3.29
		C78.11,56.06,76.64,54.58,74.82,54.58z"/>
	<path class="st0" d="M81.41,45.64c-1.82,0-3.29,1.47-3.29,3.29s1.47,3.29,3.29,3.29s3.29-1.47,3.29-3.29S83.23,45.64,81.41,45.64z"
		/>
	<circle class="st0" cx="88" cy="36.7" r="3.29"/>
	<path class="st0" d="M83.06,24.46c1.82,0,3.29-1.47,3.29-3.29s-1.47-3.29-3.29-3.29s-3.29,1.47-3.29,3.29
		C79.76,22.99,81.24,24.46,83.06,24.46z"/>
	<path class="st0" d="M83.06,8.93c1.82,0,3.29-1.47,3.29-3.29s-1.47-3.29-3.29-3.29s-3.29,1.47-3.29,3.29
		C79.76,7.46,81.24,8.93,83.06,8.93z"/>
	<path class="st0" d="M94.59,14.58c1.82,0,3.29-1.47,3.29-3.29S96.41,8,94.59,8s-3.29,1.47-3.29,3.29S92.77,14.58,94.59,14.58z"/>
	<path class="st0" d="M94.59,24.46c1.82,0,3.29-1.47,3.29-3.29s-1.47-3.29-3.29-3.29s-3.29,1.47-3.29,3.29
		C91.29,22.99,92.77,24.46,94.59,24.46z"/>
	<circle class="st0" cx="101.17" cy="34.82" r="3.29"/>
	<path class="st0" d="M94.59,47.99c-1.82,0-3.29,1.47-3.29,3.29s1.47,3.29,3.29,3.29s3.29-1.47,3.29-3.29S96.4,47.99,94.59,47.99z"
		/>
	<circle class="st0" cx="107.76" cy="46.58" r="3.29"/>
	<circle class="st0" cx="111.06" cy="34.82" r="3.29"/>
	<path class="st0" d="M111.06,18.35c-1.82,0-3.29,1.47-3.29,3.29s1.47,3.29,3.29,3.29s3.29-1.47,3.29-3.29
		S112.88,18.35,111.06,18.35z"/>
	<circle class="st0" cx="107.76" cy="8.93" r="3.29"/>
	<path class="st0" d="M124.68,11.29c0-1.82-1.47-3.29-3.29-3.29s-3.29,1.47-3.29,3.29s1.47,3.29,3.29,3.29
		C123.2,14.58,124.68,13.11,124.68,11.29z"/>
	<path class="st0" d="M129.64,14.58c-1.82,0-3.29,1.47-3.29,3.29s1.47,3.29,3.29,3.29s3.29-1.47,3.29-3.29
		C132.94,16.06,131.46,14.58,129.64,14.58z"/>
	<circle class="st0" cx="136.23" cy="31.52" r="3.29"/>
	<path class="st0" d="M126.35,31.52c-1.82,0-3.29,1.47-3.29,3.29s1.47,3.29,3.29,3.29s3.29-1.47,3.29-3.29
		C129.64,33,128.17,31.52,126.35,31.52z"/>
	<circle class="st0" cx="123.06" cy="26.82" r="3.29"/>
	<path class="st0" d="M140.94,15.05c-1.82,0-3.29,1.47-3.29,3.29s1.47,3.29,3.29,3.29s3.29-1.47,3.29-3.29
		C144.23,16.53,142.76,15.05,140.94,15.05z"/>
</g>
</svg>
