<?xml version="1.0" encoding="utf-8"?>
<!-- Generator: Adobe Illustrator 23.0.1, SVG Export Plug-In . SVG Version: 6.00 Build 0)  -->
<svg version="1.1" id="Layer_1" xmlns="http://www.w3.org/2000/svg" xmlns:xlink="http://www.w3.org/1999/xlink" x="0px" y="0px"
	 viewBox="0 0 63.62 50.31" style="enable-background:new 0 0 63.62 50.31;" xml:space="preserve">
<style type="text/css">
	.st0{fill:#464646;}
</style>
<g>
	<path class="st0" d="M17.93,0l9.25,7.33C21.01,10.99,14.46,18.9,13.3,25.45c0.39-0.19,1.93-0.39,3.28-0.39
		c6.36,0,11.37,5.01,11.37,12.14s-5.78,13.11-13.11,13.11C6.94,50.31,0,43.95,0,32.77C0.01,19.47,7.33,7.52,17.93,0z M53.6,0
		l9.25,7.33c-6.17,3.66-12.72,11.57-13.88,18.12c0.39-0.19,1.93-0.39,3.28-0.39c6.36,0,11.37,5.01,11.37,12.14
		s-5.78,13.11-13.11,13.11c-7.9,0-14.84-6.36-14.84-17.54C35.67,19.47,42.99,7.52,53.6,0z"/>
</g>
</svg>
