<svg width="738" height="557" viewBox="0 0 738 557" fill="none" xmlns="http://www.w3.org/2000/svg">
<g clip-path="url(#clip0)">
<path d="M371.039 93.6475C416.387 125.477 447.199 138.254 512.363 151.434C521.861 208.998 536.232 238.963 570.546 289.355C536.023 337.504 524.823 368.505 513.088 427.844C455.179 440.045 423.977 452.293 371.039 485.916C318.681 453.443 288.109 439.659 229.861 428.556C216.691 368.656 203.632 338.262 170.662 289.355C202.222 241.748 216.183 212.292 229.861 151.434C292.406 137.622 322.802 124.643 371.039 93.6475Z" stroke="#C8C8C8" stroke-width="0.5" stroke-miterlimit="10"/>
<path d="M370.604 128.804C328.676 159.305 303.106 168.935 254.672 175.916C248.521 223.51 238.414 248.55 206.5 289.782C234.378 330.61 245.5 355.055 255.978 401.94C306.991 409.931 331.833 421.05 370.604 450.76C406.907 420.119 431.79 409.49 485.375 401.94C493.973 347.651 504.317 322.274 534.708 289.782C503.098 252.235 489.838 228.897 483.924 178.193C432.479 169.291 407.306 158.991 370.604 128.804Z" stroke="#C8C8C8" stroke-width="0.5" stroke-miterlimit="10"/>
<path d="M370.604 160.686C337.275 185.532 317.091 194.437 277.598 198.546C268.678 237.572 260.164 257.523 239.002 289.782C263.419 323.179 270.881 343.112 278.613 379.736C318.272 386.491 338.555 394.712 370.604 418.877C402.216 394.41 422.185 385.504 462.595 379.878C467.835 339.964 475.957 319.983 502.206 289.782C476.632 257.106 467.047 237.665 461.579 200.254C421.722 192.57 401.312 184.78 370.604 160.686Z" stroke="#C8C8C8" stroke-width="0.5" stroke-miterlimit="10"/>
<path d="M370.604 190.006C345.982 209.448 330.096 215.481 298.782 219.185C292.575 249.14 286.165 264.656 268.892 289.781C287.204 313.785 293.584 329.145 299.507 359.24C330.702 363.683 345.949 371.001 370.604 389.557C395.986 365.85 411.711 360.077 441.701 359.382C445.634 328.301 452.188 312.991 472.316 289.781C452.082 269.22 445.649 253.707 440.831 220.608C406.725 216.059 391.617 209.079 370.604 190.006Z" stroke="#C8C8C8" stroke-width="0.5" stroke-miterlimit="10"/>
<path d="M370.604 225.163C356.1 238.499 345.978 242.775 324.028 244.093C322.154 265.326 317.514 275.083 304.731 289.782C320.405 306.25 323.286 316.338 324.464 334.901C346.754 334.682 356.574 339.485 370.604 354.401C385.158 338.663 395.338 334.577 416.745 334.901C416.451 312.442 421.333 302.902 436.478 289.782C420.436 274.648 415.636 264.941 416.164 244.947C392.988 243.109 383.617 238.118 370.604 225.163Z" stroke="#C8C8C8" stroke-width="0.5" stroke-miterlimit="10"/>
<path d="M371.185 61.48H370.169V517.94H371.185V61.48Z" fill="#C8C8C8"/>
<path d="M603.193 289.354H137.87V290.351H603.193V289.354Z" fill="#C8C8C8"/>
<path d="M534.755 128.148L205.725 450.912L206.443 451.616L535.473 128.853L534.755 128.148Z" fill="#C8C8C8"/>
<path d="M206.443 127.946L205.725 128.65L534.755 451.414L535.473 450.709L206.443 127.946Z" fill="#C8C8C8"/>
<path opacity="0.8" d="M509.357 234.86L509.359 234.865L534.533 289.786L485.122 401.986L370.679 450.845L279.422 379.586L206.704 289.7L254.659 175.712L370.451 129.152L484.169 178.511L509.357 234.86Z" fill="#B785FD" stroke="#7E36D9"/>
<path opacity="0.8" d="M370.771 352.414L299.381 359.112L308.398 289.814L308.403 289.776L308.397 289.739L294.695 211.788L370.586 160.225L440.957 220.795L471.878 288.852L442.433 359.124L370.818 352.414L370.795 352.411L370.771 352.414Z" fill="#51FF99" stroke="#4AAF50" stroke-width="0.5"/>
<path d="M322.237 289.199L315.279 235.781L370.576 225.572L416.184 244.659L436.084 289.232L370.153 337.671L322.237 289.199Z" fill="#FF5F5F" stroke="#EB4962" stroke-width="0.5"/>
</g>
<path d="M325.689 22.1963L321.777 15.9083C323.697 15.5963 325.569 14.0603 325.569 11.2043C325.569 8.25229 323.505 6.18829 320.337 6.18829H313.305V22.1963H316.113V16.2203H318.897L322.449 22.1963H325.689ZM319.953 13.7483H316.113V8.66029H319.953C321.537 8.66029 322.689 9.66829 322.689 11.2043C322.689 12.7403 321.537 13.7483 319.953 13.7483ZM332.928 22.4843C334.776 22.4843 336.48 21.9083 337.632 20.8043L336.48 19.1483C335.664 19.9643 334.32 20.4203 333.192 20.4203C331.008 20.4203 329.688 18.9803 329.496 17.2283H338.448V16.6283C338.448 12.9803 336.216 10.3163 332.736 10.3163C329.304 10.3163 326.856 13.0283 326.856 16.3883C326.856 20.0603 329.448 22.4843 332.928 22.4843ZM336 15.4523H329.472C329.592 14.0363 330.576 12.3803 332.736 12.3803C335.016 12.3803 335.952 14.0843 336 15.4523ZM350.536 22.1963V14.5163C350.536 11.3963 348.28 10.3163 345.712 10.3163C343.864 10.3163 342.184 10.9163 340.84 12.1883L341.872 13.9403C342.88 12.9563 344.008 12.4763 345.304 12.4763C346.912 12.4763 348.016 13.2923 348.016 14.6363V16.3643C347.176 15.3803 345.832 14.8763 344.272 14.8763C342.376 14.8763 340.24 15.9803 340.24 18.6443C340.24 21.2123 342.376 22.4843 344.272 22.4843C345.808 22.4843 347.152 21.9323 348.016 20.9483V22.1963H350.536ZM345.256 20.7563C343.84 20.7563 342.784 19.9403 342.784 18.6923C342.784 17.4203 343.84 16.6043 345.256 16.6043C346.36 16.6043 347.44 17.0123 348.016 17.8043V19.5563C347.44 20.3483 346.36 20.7563 345.256 20.7563ZM356.323 22.1963V6.18829H353.803V22.1963H356.323ZM381.068 22.1963L385.628 6.18829H382.484L379.388 18.5243L376.076 6.18829H373.844L370.532 18.5243L367.412 6.18829H364.268L368.852 22.1963H371.852L374.948 10.3883L378.068 22.1963H381.068ZM391.707 22.4843C395.427 22.4843 397.683 19.7243 397.683 16.3883C397.683 13.0763 395.427 10.3163 391.707 10.3163C388.035 10.3163 385.755 13.0763 385.755 16.3883C385.755 19.7243 388.035 22.4843 391.707 22.4843ZM391.707 20.2523C389.571 20.2523 388.371 18.4523 388.371 16.3883C388.371 14.3483 389.571 12.5483 391.707 12.5483C393.867 12.5483 395.067 14.3483 395.067 16.3883C395.067 18.4523 393.867 20.2523 391.707 20.2523ZM402.753 22.1963V14.3003C403.257 13.4843 404.673 12.7643 405.729 12.7643C406.041 12.7643 406.305 12.7883 406.521 12.8363V10.3403C405.009 10.3403 403.617 11.2043 402.753 12.3083V10.6043H400.233V22.1963H402.753ZM411.073 22.1963V6.18829H408.553V22.1963H411.073ZM425.022 22.1963V6.18829H422.502V12.2123C421.566 10.9883 420.222 10.3163 418.782 10.3163C415.782 10.3163 413.622 12.6683 413.622 16.4123C413.622 20.2283 415.806 22.4843 418.782 22.4843C420.27 22.4843 421.614 21.7643 422.502 20.6123V22.1963H425.022ZM419.502 20.2523C417.51 20.2523 416.238 18.6443 416.238 16.4123C416.238 14.1563 417.51 12.5483 419.502 12.5483C420.702 12.5483 421.926 13.2443 422.502 14.1083V18.7163C421.926 19.5803 420.702 20.2523 419.502 20.2523ZM324.681 51.1963L318.393 35.1883H314.889L308.601 51.1963H311.793L312.969 48.1243H320.313L321.489 51.1963H324.681ZM319.521 45.6523H313.761L316.641 38.0203L319.521 45.6523ZM332.598 51.4843C335.598 51.4843 337.734 49.2043 337.734 45.3883C337.734 41.5723 335.598 39.3163 332.598 39.3163C331.086 39.3163 329.742 40.0363 328.878 41.1883V39.6043H326.358V55.6123H328.878V49.5883C329.814 50.8363 331.134 51.4843 332.598 51.4843ZM331.854 49.2523C330.678 49.2523 329.43 48.5323 328.878 47.6923V43.1083C329.43 42.2443 330.678 41.5483 331.854 41.5483C333.846 41.5483 335.118 43.1563 335.118 45.3883C335.118 47.6443 333.846 49.2523 331.854 49.2523ZM346.473 51.4843C349.473 51.4843 351.609 49.2043 351.609 45.3883C351.609 41.5723 349.473 39.3163 346.473 39.3163C344.961 39.3163 343.617 40.0363 342.753 41.1883V39.6043H340.233V55.6123H342.753V49.5883C343.689 50.8363 345.009 51.4843 346.473 51.4843ZM345.729 49.2523C344.553 49.2523 343.305 48.5323 342.753 47.6923V43.1083C343.305 42.2443 344.553 41.5483 345.729 41.5483C347.721 41.5483 348.993 43.1563 348.993 45.3883C348.993 47.6443 347.721 49.2523 345.729 49.2523ZM356.628 51.1963V35.1883H354.108V51.1963H356.628ZM361.145 38.1883C362.009 38.1883 362.705 37.4923 362.705 36.6283C362.705 35.7643 362.009 35.0683 361.145 35.0683C360.305 35.0683 359.585 35.7643 359.585 36.6283C359.585 37.4923 360.305 38.1883 361.145 38.1883ZM362.417 51.1963V39.6043H359.897V51.1963H362.417ZM370.966 51.4843C373.222 51.4843 374.59 50.5243 375.406 49.4203L373.75 47.8843C373.102 48.7723 372.214 49.2523 371.086 49.2523C368.974 49.2523 367.582 47.6443 367.582 45.3883C367.582 43.1323 368.974 41.5483 371.086 41.5483C372.214 41.5483 373.102 42.0043 373.75 42.9163L375.406 41.3803C374.59 40.2763 373.222 39.3163 370.966 39.3163C367.438 39.3163 364.966 41.8843 364.966 45.3883C364.966 48.9163 367.438 51.4843 370.966 51.4843ZM387.215 51.1963V43.5163C387.215 40.3963 384.959 39.3163 382.391 39.3163C380.543 39.3163 378.863 39.9163 377.519 41.1883L378.551 42.9403C379.559 41.9563 380.687 41.4763 381.983 41.4763C383.591 41.4763 384.695 42.2923 384.695 43.6363V45.3643C383.855 44.3803 382.511 43.8763 380.951 43.8763C379.055 43.8763 376.919 44.9803 376.919 47.6443C376.919 50.2123 379.055 51.4843 380.951 51.4843C382.487 51.4843 383.831 50.9323 384.695 49.9483V51.1963H387.215ZM381.935 49.7563C380.519 49.7563 379.463 48.9403 379.463 47.6923C379.463 46.4203 380.519 45.6043 381.935 45.6043C383.039 45.6043 384.119 46.0123 384.695 46.8043V48.5563C384.119 49.3483 383.039 49.7563 381.935 49.7563ZM393.963 51.4843C395.139 51.4843 395.883 51.1723 396.339 50.7403L395.739 48.8443C395.547 49.0603 395.091 49.2523 394.611 49.2523C393.891 49.2523 393.507 48.6763 393.507 47.8843V41.8123H395.859V39.6043H393.507V36.4363H390.987V39.6043H389.067V41.8123H390.987V48.5083C390.987 50.4283 392.019 51.4843 393.963 51.4843ZM399.395 38.1883C400.259 38.1883 400.955 37.4923 400.955 36.6283C400.955 35.7643 400.259 35.0683 399.395 35.0683C398.555 35.0683 397.835 35.7643 397.835 36.6283C397.835 37.4923 398.555 38.1883 399.395 38.1883ZM400.667 51.1963V39.6043H398.147V51.1963H400.667ZM409.168 51.4843C412.888 51.4843 415.144 48.7243 415.144 45.3883C415.144 42.0763 412.888 39.3163 409.168 39.3163C405.496 39.3163 403.216 42.0763 403.216 45.3883C403.216 48.7243 405.496 51.4843 409.168 51.4843ZM409.168 49.2523C407.032 49.2523 405.832 47.4523 405.832 45.3883C405.832 43.3483 407.032 41.5483 409.168 41.5483C411.328 41.5483 412.528 43.3483 412.528 45.3883C412.528 47.4523 411.328 49.2523 409.168 49.2523ZM428.038 51.1963V43.0363C428.038 40.6603 426.79 39.3163 424.294 39.3163C422.47 39.3163 420.982 40.2763 420.214 41.1883V39.6043H417.694V51.1963H420.214V43.1083C420.79 42.3163 421.894 41.5483 423.19 41.5483C424.606 41.5483 425.518 42.1483 425.518 43.9483V51.1963H428.038Z" fill="#333333"/>
<path d="M598.509 105.263V102.791H591.453V89.2552H588.645V105.263H598.509ZM605.852 105.551C609.572 105.551 611.828 102.791 611.828 99.4552C611.828 96.1432 609.572 93.3832 605.852 93.3832C602.18 93.3832 599.9 96.1432 599.9 99.4552C599.9 102.791 602.18 105.551 605.852 105.551ZM605.852 103.319C603.716 103.319 602.516 101.519 602.516 99.4552C602.516 97.4152 603.716 95.6152 605.852 95.6152C608.012 95.6152 609.212 97.4152 609.212 99.4552C609.212 101.519 608.012 103.319 605.852 103.319ZM619.082 109.967C621.938 109.967 625.034 108.839 625.034 104.663V93.6712H622.514V95.2792C621.578 94.0552 620.258 93.3832 618.794 93.3832C615.818 93.3832 613.658 95.5912 613.658 99.3352C613.658 103.151 615.842 105.287 618.794 105.287C620.306 105.287 621.626 104.519 622.514 103.367V104.759C622.514 107.135 620.738 107.903 619.082 107.903C617.546 107.903 616.346 107.495 615.41 106.415L614.234 108.239C615.65 109.535 617.114 109.967 619.082 109.967ZM619.538 103.055C617.546 103.055 616.274 101.567 616.274 99.3352C616.274 97.1032 617.546 95.6152 619.538 95.6152C620.714 95.6152 621.962 96.3112 622.514 97.1752V101.495C621.962 102.359 620.714 103.055 619.538 103.055ZM629.547 92.2552C630.411 92.2552 631.107 91.5592 631.107 90.6952C631.107 89.8312 630.411 89.1352 629.547 89.1352C628.707 89.1352 627.987 89.8312 627.987 90.6952C627.987 91.5592 628.707 92.2552 629.547 92.2552ZM630.819 105.263V93.6712H628.299V105.263H630.819ZM639.368 105.551C641.624 105.551 642.992 104.591 643.808 103.487L642.152 101.951C641.504 102.839 640.616 103.319 639.488 103.319C637.376 103.319 635.984 101.711 635.984 99.4552C635.984 97.1992 637.376 95.6152 639.488 95.6152C640.616 95.6152 641.504 96.0712 642.152 96.9832L643.808 95.4472C642.992 94.3432 641.624 93.3832 639.368 93.3832C635.84 93.3832 633.368 95.9512 633.368 99.4552C633.368 102.983 635.84 105.551 639.368 105.551ZM557.581 134.263V118.255H555.061V124.279C554.125 123.055 552.781 122.383 551.341 122.383C548.341 122.383 546.181 124.735 546.181 128.479C546.181 132.295 548.365 134.551 551.341 134.551C552.829 134.551 554.173 133.831 555.061 132.679V134.263H557.581ZM552.061 132.319C550.069 132.319 548.797 130.711 548.797 128.479C548.797 126.223 550.069 124.615 552.061 124.615C553.261 124.615 554.485 125.311 555.061 126.175V130.783C554.485 131.647 553.261 132.319 552.061 132.319ZM566.198 134.551C568.046 134.551 569.75 133.975 570.902 132.871L569.75 131.215C568.934 132.031 567.59 132.487 566.462 132.487C564.278 132.487 562.958 131.047 562.766 129.295H571.718V128.695C571.718 125.047 569.486 122.383 566.006 122.383C562.574 122.383 560.126 125.095 560.126 128.455C560.126 132.127 562.718 134.551 566.198 134.551ZM569.27 127.519H562.742C562.862 126.103 563.846 124.447 566.006 124.447C568.286 124.447 569.222 126.151 569.27 127.519ZM579.966 134.263L584.694 122.671H581.982L578.598 131.359L575.214 122.671H572.526L577.254 134.263H579.966ZM591.628 134.551C593.476 134.551 595.18 133.975 596.332 132.871L595.18 131.215C594.364 132.031 593.02 132.487 591.892 132.487C589.708 132.487 588.388 131.047 588.196 129.295H597.148V128.695C597.148 125.047 594.916 122.383 591.436 122.383C588.004 122.383 585.556 125.095 585.556 128.455C585.556 132.127 588.148 134.551 591.628 134.551ZM594.7 127.519H588.172C588.292 126.103 589.276 124.447 591.436 124.447C593.716 124.447 594.652 126.151 594.7 127.519ZM602.155 134.263V118.255H599.635V134.263H602.155ZM610.656 134.551C614.376 134.551 616.632 131.791 616.632 128.455C616.632 125.143 614.376 122.383 610.656 122.383C606.984 122.383 604.704 125.143 604.704 128.455C604.704 131.791 606.984 134.551 610.656 134.551ZM610.656 132.319C608.52 132.319 607.32 130.519 607.32 128.455C607.32 126.415 608.52 124.615 610.656 124.615C612.816 124.615 614.016 126.415 614.016 128.455C614.016 130.519 612.816 132.319 610.656 132.319ZM625.422 134.551C628.422 134.551 630.558 132.271 630.558 128.455C630.558 124.639 628.422 122.383 625.422 122.383C623.91 122.383 622.566 123.103 621.702 124.255V122.671H619.182V138.679H621.702V132.655C622.638 133.903 623.958 134.551 625.422 134.551ZM624.678 132.319C623.502 132.319 622.254 131.599 621.702 130.759V126.175C622.254 125.311 623.502 124.615 624.678 124.615C626.67 124.615 627.942 126.223 627.942 128.455C627.942 130.711 626.67 132.319 624.678 132.319ZM649.785 134.263V125.887C649.785 123.535 648.585 122.383 646.449 122.383C644.721 122.383 643.185 123.463 642.513 124.519C642.129 123.247 641.073 122.383 639.345 122.383C637.593 122.383 636.057 123.535 635.577 124.255V122.671H633.057V134.263H635.577V126.175C636.105 125.407 637.137 124.615 638.241 124.615C639.609 124.615 640.161 125.455 640.161 126.703V134.263H642.681V126.151C643.185 125.407 644.241 124.615 645.369 124.615C646.713 124.615 647.265 125.455 647.265 126.703V134.263H649.785ZM658.401 134.551C660.249 134.551 661.953 133.975 663.105 132.871L661.953 131.215C661.137 132.031 659.793 132.487 658.665 132.487C656.481 132.487 655.161 131.047 654.969 129.295H663.921V128.695C663.921 125.047 661.689 122.383 658.209 122.383C654.777 122.383 652.329 125.095 652.329 128.455C652.329 132.127 654.921 134.551 658.401 134.551ZM661.473 127.519H654.945C655.065 126.103 656.049 124.447 658.209 124.447C660.489 124.447 661.425 126.151 661.473 127.519ZM676.753 134.263V126.103C676.753 123.727 675.505 122.383 673.009 122.383C671.185 122.383 669.697 123.343 668.929 124.255V122.671H666.409V134.263H668.929V126.175C669.505 125.383 670.609 124.615 671.905 124.615C673.321 124.615 674.233 125.215 674.233 127.015V134.263H676.753ZM683.506 134.551C684.682 134.551 685.426 134.239 685.882 133.807L685.282 131.911C685.09 132.127 684.634 132.319 684.154 132.319C683.434 132.319 683.05 131.743 683.05 130.951V124.879H685.402V122.671H683.05V119.503H680.53V122.671H678.61V124.879H680.53V131.575C680.53 133.495 681.562 134.551 683.506 134.551Z" fill="#333333"/>
<path d="M636.142 283.885C639.382 283.885 641.35 282.205 642.574 280.285L640.174 279.061C639.406 280.405 637.87 281.389 636.142 281.389C632.974 281.389 630.622 278.965 630.622 275.605C630.622 272.245 632.974 269.821 636.142 269.821C637.87 269.821 639.406 270.829 640.174 272.149L642.574 270.925C641.374 269.005 639.382 267.325 636.142 267.325C631.414 267.325 627.742 270.685 627.742 275.605C627.742 280.525 631.414 283.885 636.142 283.885ZM647.27 283.597V275.701C647.774 274.885 649.19 274.165 650.246 274.165C650.558 274.165 650.822 274.189 651.038 274.237V271.741C649.526 271.741 648.134 272.605 647.27 273.709V272.005H644.75V283.597H647.27ZM654.318 270.589C655.182 270.589 655.878 269.893 655.878 269.029C655.878 268.165 655.182 267.469 654.318 267.469C653.478 267.469 652.758 268.165 652.758 269.029C652.758 269.893 653.478 270.589 654.318 270.589ZM655.59 283.597V272.005H653.07V283.597H655.59ZM662.339 283.885C663.515 283.885 664.259 283.573 664.715 283.141L664.115 281.245C663.923 281.461 663.467 281.653 662.987 281.653C662.267 281.653 661.883 281.077 661.883 280.285V274.213H664.235V272.005H661.883V268.837H659.363V272.005H657.443V274.213H659.363V280.909C659.363 282.829 660.395 283.885 662.339 283.885ZM667.771 270.589C668.635 270.589 669.331 269.893 669.331 269.029C669.331 268.165 668.635 267.469 667.771 267.469C666.931 267.469 666.211 268.165 666.211 269.029C666.211 269.893 666.931 270.589 667.771 270.589ZM669.043 283.597V272.005H666.523V283.597H669.043ZM677.592 283.885C679.848 283.885 681.216 282.925 682.032 281.821L680.376 280.285C679.728 281.173 678.84 281.653 677.712 281.653C675.6 281.653 674.208 280.045 674.208 277.789C674.208 275.533 675.6 273.949 677.712 273.949C678.84 273.949 679.728 274.405 680.376 275.317L682.032 273.781C681.216 272.677 679.848 271.717 677.592 271.717C674.064 271.717 671.592 274.285 671.592 277.789C671.592 281.317 674.064 283.885 677.592 283.885ZM693.842 283.597V275.917C693.842 272.797 691.586 271.717 689.018 271.717C687.17 271.717 685.49 272.317 684.146 273.589L685.178 275.341C686.186 274.357 687.314 273.877 688.61 273.877C690.218 273.877 691.322 274.693 691.322 276.037V277.765C690.482 276.781 689.138 276.277 687.578 276.277C685.682 276.277 683.546 277.381 683.546 280.045C683.546 282.613 685.682 283.885 687.578 283.885C689.114 283.885 690.458 283.333 691.322 282.349V283.597H693.842ZM688.562 282.157C687.146 282.157 686.09 281.341 686.09 280.093C686.09 278.821 687.146 278.005 688.562 278.005C689.666 278.005 690.746 278.413 691.322 279.205V280.957C690.746 281.749 689.666 282.157 688.562 282.157ZM699.629 283.597V267.589H697.109V283.597H699.629ZM625.788 312.885C626.964 312.885 627.708 312.573 628.164 312.141L627.564 310.245C627.372 310.461 626.916 310.653 626.436 310.653C625.716 310.653 625.332 310.077 625.332 309.285V303.213H627.684V301.005H625.332V297.837H622.812V301.005H620.892V303.213H622.812V309.909C622.812 311.829 623.844 312.885 625.788 312.885ZM640.34 312.597V304.389C640.34 302.013 639.092 300.717 636.596 300.717C634.772 300.717 633.26 301.677 632.492 302.589V296.589H629.972V312.597H632.492V304.509C633.092 303.717 634.196 302.949 635.468 302.949C636.884 302.949 637.82 303.501 637.82 305.301V312.597H640.34ZM644.861 299.589C645.725 299.589 646.421 298.893 646.421 298.029C646.421 297.165 645.725 296.469 644.861 296.469C644.021 296.469 643.301 297.165 643.301 298.029C643.301 298.893 644.021 299.589 644.861 299.589ZM646.133 312.597V301.005H643.613V312.597H646.133ZM659.746 312.597V304.437C659.746 302.061 658.498 300.717 656.002 300.717C654.178 300.717 652.69 301.677 651.922 302.589V301.005H649.402V312.597H651.922V304.509C652.498 303.717 653.602 302.949 654.898 302.949C656.314 302.949 657.226 303.549 657.226 305.349V312.597H659.746ZM673.867 312.597L668.947 306.261L673.771 301.005H670.651L665.539 306.597V296.589H663.019V312.597H665.539V309.477L667.147 307.821L670.699 312.597H673.867ZM676.9 299.589C677.764 299.589 678.46 298.893 678.46 298.029C678.46 297.165 677.764 296.469 676.9 296.469C676.06 296.469 675.34 297.165 675.34 298.029C675.34 298.893 676.06 299.589 676.9 299.589ZM678.172 312.597V301.005H675.652V312.597H678.172ZM691.785 312.597V304.437C691.785 302.061 690.537 300.717 688.041 300.717C686.217 300.717 684.729 301.677 683.961 302.589V301.005H681.441V312.597H683.961V304.509C684.537 303.717 685.641 302.949 686.937 302.949C688.353 302.949 689.265 303.549 689.265 305.349V312.597H691.785ZM699.762 317.301C702.618 317.301 705.714 316.173 705.714 311.997V301.005H703.194V302.613C702.258 301.389 700.938 300.717 699.474 300.717C696.498 300.717 694.338 302.925 694.338 306.669C694.338 310.485 696.522 312.621 699.474 312.621C700.986 312.621 702.306 311.853 703.194 310.701V312.093C703.194 314.469 701.418 315.237 699.762 315.237C698.226 315.237 697.026 314.829 696.09 313.749L694.914 315.573C696.33 316.869 697.794 317.301 699.762 317.301ZM700.218 310.389C698.226 310.389 696.954 308.901 696.954 306.669C696.954 304.437 698.226 302.949 700.218 302.949C701.394 302.949 702.642 303.645 703.194 304.509V308.829C702.642 309.693 701.394 310.389 700.218 310.389Z" fill="#333333"/>
<path d="M555.816 457.983C560.808 457.983 564.192 454.695 564.192 449.991C564.192 445.287 560.808 441.975 555.816 441.975H549.864V457.983H555.816ZM555.816 455.511H552.672V444.447H555.816C559.392 444.447 561.312 446.895 561.312 449.991C561.312 453.015 559.296 455.511 555.816 455.511ZM572.184 458.271C574.032 458.271 575.736 457.695 576.888 456.591L575.736 454.935C574.92 455.751 573.576 456.207 572.448 456.207C570.264 456.207 568.944 454.767 568.752 453.015H577.704V452.415C577.704 448.767 575.472 446.103 571.992 446.103C568.56 446.103 566.112 448.815 566.112 452.175C566.112 455.847 568.704 458.271 572.184 458.271ZM575.256 451.239H568.728C568.848 449.823 569.832 448.167 571.992 448.167C574.272 448.167 575.208 449.871 575.256 451.239ZM584.151 458.271C587.271 458.271 588.975 456.711 588.975 454.671C588.975 450.063 581.967 451.599 581.967 449.535C581.967 448.719 582.807 448.119 584.127 448.119C585.567 448.119 586.863 448.719 587.559 449.511L588.615 447.735C587.559 446.799 586.071 446.103 584.103 446.103C581.175 446.103 579.543 447.735 579.543 449.631C579.543 454.071 586.551 452.439 586.551 454.719C586.551 455.631 585.783 456.279 584.271 456.279C582.759 456.279 581.151 455.487 580.335 454.647L579.183 456.471C580.383 457.647 582.183 458.271 584.151 458.271ZM592.759 444.975C593.623 444.975 594.319 444.279 594.319 443.415C594.319 442.551 593.623 441.855 592.759 441.855C591.919 441.855 591.199 442.551 591.199 443.415C591.199 444.279 591.919 444.975 592.759 444.975ZM594.031 457.983V446.391H591.511V457.983H594.031ZM602.004 462.687C604.86 462.687 607.956 461.559 607.956 457.383V446.391H605.436V447.999C604.5 446.775 603.18 446.103 601.716 446.103C598.74 446.103 596.58 448.311 596.58 452.055C596.58 455.871 598.764 458.007 601.716 458.007C603.228 458.007 604.548 457.239 605.436 456.087V457.479C605.436 459.855 603.66 460.623 602.004 460.623C600.468 460.623 599.268 460.215 598.332 459.135L597.156 460.959C598.572 462.255 600.036 462.687 602.004 462.687ZM602.46 455.775C600.468 455.775 599.196 454.287 599.196 452.055C599.196 449.823 600.468 448.335 602.46 448.335C603.636 448.335 604.884 449.031 605.436 449.895V454.215C604.884 455.079 603.636 455.775 602.46 455.775ZM621.566 457.983V449.823C621.566 447.447 620.318 446.103 617.822 446.103C615.998 446.103 614.51 447.063 613.742 447.975V446.391H611.222V457.983H613.742V449.895C614.318 449.103 615.422 448.335 616.718 448.335C618.134 448.335 619.046 448.935 619.046 450.735V457.983H621.566ZM547.46 487.271C548.636 487.271 549.38 486.959 549.836 486.527L549.236 484.631C549.044 484.847 548.588 485.039 548.108 485.039C547.388 485.039 547.004 484.463 547.004 483.671V477.599H549.356V475.391H547.004V472.223H544.484V475.391H542.564V477.599H544.484V484.295C544.484 486.215 545.516 487.271 547.46 487.271ZM562.012 486.983V478.775C562.012 476.399 560.764 475.103 558.268 475.103C556.444 475.103 554.932 476.063 554.164 476.975V470.975H551.644V486.983H554.164V478.895C554.764 478.103 555.868 477.335 557.14 477.335C558.556 477.335 559.492 477.887 559.492 479.687V486.983H562.012ZM566.533 473.975C567.397 473.975 568.093 473.279 568.093 472.415C568.093 471.551 567.397 470.855 566.533 470.855C565.693 470.855 564.973 471.551 564.973 472.415C564.973 473.279 565.693 473.975 566.533 473.975ZM567.805 486.983V475.391H565.285V486.983H567.805ZM581.418 486.983V478.823C581.418 476.447 580.17 475.103 577.674 475.103C575.85 475.103 574.362 476.063 573.594 476.975V475.391H571.074V486.983H573.594V478.895C574.17 478.103 575.274 477.335 576.57 477.335C577.986 477.335 578.898 477.935 578.898 479.735V486.983H581.418ZM595.539 486.983L590.619 480.647L595.443 475.391H592.323L587.211 480.983V470.975H584.691V486.983H587.211V483.863L588.819 482.207L592.371 486.983H595.539ZM598.572 473.975C599.436 473.975 600.132 473.279 600.132 472.415C600.132 471.551 599.436 470.855 598.572 470.855C597.732 470.855 597.012 471.551 597.012 472.415C597.012 473.279 597.732 473.975 598.572 473.975ZM599.844 486.983V475.391H597.324V486.983H599.844ZM613.457 486.983V478.823C613.457 476.447 612.209 475.103 609.713 475.103C607.889 475.103 606.401 476.063 605.633 476.975V475.391H603.113V486.983H605.633V478.895C606.209 478.103 607.313 477.335 608.609 477.335C610.025 477.335 610.937 477.935 610.937 479.735V486.983H613.457ZM621.434 491.687C624.29 491.687 627.386 490.559 627.386 486.383V475.391H624.866V476.999C623.93 475.775 622.61 475.103 621.146 475.103C618.17 475.103 616.01 477.311 616.01 481.055C616.01 484.871 618.194 487.007 621.146 487.007C622.658 487.007 623.978 486.239 624.866 485.087V486.479C624.866 488.855 623.09 489.623 621.434 489.623C619.898 489.623 618.698 489.215 617.762 488.135L616.586 489.959C618.002 491.255 619.466 491.687 621.434 491.687ZM621.89 484.775C619.898 484.775 618.626 483.287 618.626 481.055C618.626 478.823 619.898 477.335 621.89 477.335C623.066 477.335 624.314 478.031 624.866 478.895V483.215C624.314 484.079 623.066 484.775 621.89 484.775Z" fill="#333333"/>
<path d="M330.426 549.949C333.666 549.949 335.634 548.269 336.858 546.349L334.458 545.125C333.69 546.469 332.154 547.453 330.426 547.453C327.258 547.453 324.906 545.029 324.906 541.669C324.906 538.309 327.258 535.885 330.426 535.885C332.154 535.885 333.69 536.893 334.458 538.213L336.858 536.989C335.658 535.069 333.666 533.389 330.426 533.389C325.698 533.389 322.026 536.749 322.026 541.669C322.026 546.589 325.698 549.949 330.426 549.949ZM341.553 549.661V541.765C342.057 540.949 343.473 540.229 344.529 540.229C344.841 540.229 345.105 540.253 345.321 540.301V537.805C343.809 537.805 342.417 538.669 341.553 539.773V538.069H339.033V549.661H341.553ZM352.705 549.949C354.553 549.949 356.257 549.373 357.409 548.269L356.257 546.613C355.441 547.429 354.097 547.885 352.969 547.885C350.785 547.885 349.465 546.445 349.273 544.693H358.225V544.093C358.225 540.445 355.993 537.781 352.513 537.781C349.081 537.781 346.633 540.493 346.633 543.853C346.633 547.525 349.225 549.949 352.705 549.949ZM355.777 542.917H349.249C349.369 541.501 350.353 539.845 352.513 539.845C354.793 539.845 355.729 541.549 355.777 542.917ZM370.313 549.661V541.981C370.313 538.861 368.057 537.781 365.489 537.781C363.641 537.781 361.961 538.381 360.617 539.653L361.649 541.405C362.657 540.421 363.785 539.941 365.081 539.941C366.689 539.941 367.793 540.757 367.793 542.101V543.829C366.953 542.845 365.609 542.341 364.049 542.341C362.153 542.341 360.017 543.445 360.017 546.109C360.017 548.677 362.153 549.949 364.049 549.949C365.585 549.949 366.929 549.397 367.793 548.413V549.661H370.313ZM365.033 548.221C363.617 548.221 362.561 547.405 362.561 546.157C362.561 544.885 363.617 544.069 365.033 544.069C366.137 544.069 367.217 544.477 367.793 545.269V547.021C367.217 547.813 366.137 548.221 365.033 548.221ZM377.06 549.949C378.236 549.949 378.98 549.637 379.436 549.205L378.836 547.309C378.644 547.525 378.188 547.717 377.708 547.717C376.988 547.717 376.604 547.141 376.604 546.349V540.277H378.956V538.069H376.604V534.901H374.084V538.069H372.164V540.277H374.084V546.973C374.084 548.893 375.116 549.949 377.06 549.949ZM382.492 536.653C383.356 536.653 384.052 535.957 384.052 535.093C384.052 534.229 383.356 533.533 382.492 533.533C381.652 533.533 380.932 534.229 380.932 535.093C380.932 535.957 381.652 536.653 382.492 536.653ZM383.764 549.661V538.069H381.244V549.661H383.764ZM392.793 549.661L397.521 538.069H394.809L391.425 546.757L388.041 538.069H385.353L390.081 549.661H392.793ZM400.351 536.653C401.215 536.653 401.911 535.957 401.911 535.093C401.911 534.229 401.215 533.533 400.351 533.533C399.511 533.533 398.791 534.229 398.791 535.093C398.791 535.957 399.511 536.653 400.351 536.653ZM401.623 549.661V538.069H399.103V549.661H401.623ZM408.372 549.949C409.548 549.949 410.292 549.637 410.748 549.205L410.148 547.309C409.956 547.525 409.5 547.717 409.02 547.717C408.3 547.717 407.916 547.141 407.916 546.349V540.277H410.268V538.069H407.916V534.901H405.396V538.069H403.476V540.277H405.396V546.973C405.396 548.893 406.428 549.949 408.372 549.949ZM412.052 554.197C412.412 554.293 413.108 554.365 413.468 554.365C415.268 554.341 416.66 553.717 417.452 551.749L423.044 538.069H420.332L416.948 546.757L413.564 538.069H410.876L415.628 549.805L415.052 551.125C414.716 551.893 414.188 552.133 413.396 552.133C413.108 552.133 412.7 552.061 412.436 551.941L412.052 554.197Z" fill="#333333"/>
<path d="M27.5918 298.235L21.3038 282.227H17.7998L11.5118 298.235H14.7038L15.8798 295.163H23.2238L24.3998 298.235H27.5918ZM22.4318 292.691H16.6718L19.5518 285.059L22.4318 292.691ZM31.7882 294.755V290.171C32.3402 289.307 33.5882 288.587 34.7642 288.587C36.7802 288.587 38.0522 290.195 38.0522 292.451C38.0522 294.707 36.7802 296.291 34.7642 296.291C33.5882 296.291 32.3402 295.619 31.7882 294.755ZM31.7882 298.235V296.651C32.6762 297.803 33.9962 298.523 35.5082 298.523C38.4602 298.523 40.6442 296.267 40.6442 292.451C40.6442 288.707 38.4842 286.355 35.5082 286.355C34.0442 286.355 32.7002 287.027 31.7882 288.251V282.227H29.2682V298.235H31.7882ZM47.1735 298.523C50.2935 298.523 51.9975 296.963 51.9975 294.923C51.9975 290.315 44.9895 291.851 44.9895 289.787C44.9895 288.971 45.8295 288.371 47.1495 288.371C48.5895 288.371 49.8855 288.971 50.5815 289.763L51.6375 287.987C50.5815 287.051 49.0935 286.355 47.1255 286.355C44.1975 286.355 42.5655 287.987 42.5655 289.883C42.5655 294.323 49.5735 292.691 49.5735 294.971C49.5735 295.883 48.8055 296.531 47.2935 296.531C45.7815 296.531 44.1735 295.739 43.3575 294.899L42.2055 296.723C43.4055 297.899 45.2055 298.523 47.1735 298.523ZM58.0139 298.523C59.1899 298.523 59.9339 298.211 60.3899 297.779L59.7899 295.883C59.5979 296.099 59.1419 296.291 58.6619 296.291C57.9419 296.291 57.5579 295.715 57.5579 294.923V288.851H59.9099V286.643H57.5579V283.475H55.0379V286.643H53.1179V288.851H55.0379V295.547C55.0379 297.467 56.0699 298.523 58.0139 298.523ZM64.7179 298.235V290.339C65.2219 289.523 66.6379 288.803 67.6939 288.803C68.0059 288.803 68.2699 288.827 68.4859 288.875V286.379C66.9739 286.379 65.5819 287.243 64.7179 288.347V286.643H62.1979V298.235H64.7179ZM80.1182 298.235V290.555C80.1182 287.435 77.8622 286.355 75.2942 286.355C73.4462 286.355 71.7662 286.955 70.4222 288.227L71.4542 289.979C72.4622 288.995 73.5902 288.515 74.8862 288.515C76.4942 288.515 77.5982 289.331 77.5982 290.675V292.403C76.7582 291.419 75.4142 290.915 73.8542 290.915C71.9582 290.915 69.8222 292.019 69.8222 294.683C69.8222 297.251 71.9582 298.523 73.8542 298.523C75.3902 298.523 76.7342 297.971 77.5982 296.987V298.235H80.1182ZM74.8382 296.795C73.4222 296.795 72.3662 295.979 72.3662 294.731C72.3662 293.459 73.4222 292.643 74.8382 292.643C75.9422 292.643 77.0222 293.051 77.5982 293.843V295.595C77.0222 296.387 75.9422 296.795 74.8382 296.795ZM88.6654 298.523C90.9214 298.523 92.2894 297.563 93.1054 296.459L91.4494 294.923C90.8014 295.811 89.9134 296.291 88.7854 296.291C86.6734 296.291 85.2814 294.683 85.2814 292.427C85.2814 290.171 86.6734 288.587 88.7854 288.587C89.9134 288.587 90.8014 289.043 91.4494 289.955L93.1054 288.419C92.2894 287.315 90.9214 286.355 88.6654 286.355C85.1374 286.355 82.6654 288.923 82.6654 292.427C82.6654 295.955 85.1374 298.523 88.6654 298.523ZM98.7951 298.523C99.9711 298.523 100.715 298.211 101.171 297.779L100.571 295.883C100.379 296.099 99.9231 296.291 99.4431 296.291C98.7231 296.291 98.3391 295.715 98.3391 294.923V288.851H100.691V286.643H98.3391V283.475H95.8191V286.643H93.8991V288.851H95.8191V295.547C95.8191 297.467 96.8511 298.523 98.7951 298.523ZM104.227 285.227C105.091 285.227 105.787 284.531 105.787 283.667C105.787 282.803 105.091 282.107 104.227 282.107C103.387 282.107 102.667 282.803 102.667 283.667C102.667 284.531 103.387 285.227 104.227 285.227ZM105.499 298.235V286.643H102.979V298.235H105.499ZM114 298.523C117.72 298.523 119.976 295.763 119.976 292.427C119.976 289.115 117.72 286.355 114 286.355C110.328 286.355 108.048 289.115 108.048 292.427C108.048 295.763 110.328 298.523 114 298.523ZM114 296.291C111.864 296.291 110.664 294.491 110.664 292.427C110.664 290.387 111.864 288.587 114 288.587C116.16 288.587 117.36 290.387 117.36 292.427C117.36 294.491 116.16 296.291 114 296.291ZM132.87 298.235V290.075C132.87 287.699 131.622 286.355 129.126 286.355C127.302 286.355 125.814 287.315 125.046 288.227V286.643H122.526V298.235H125.046V290.147C125.622 289.355 126.726 288.587 128.022 288.587C129.438 288.587 130.35 289.187 130.35 290.987V298.235H132.87Z" fill="#333333"/>
<path d="M111.464 464.182L105.176 448.174H101.672L95.3844 464.182H98.5764L99.7524 461.11H107.096L108.272 464.182H111.464ZM106.304 458.638H100.544L103.424 451.006L106.304 458.638ZM115.661 464.182V448.174H113.141V464.182H115.661ZM123.634 468.886C126.49 468.886 129.586 467.758 129.586 463.582V452.59H127.066V454.198C126.13 452.974 124.81 452.302 123.346 452.302C120.37 452.302 118.21 454.51 118.21 458.254C118.21 462.07 120.394 464.206 123.346 464.206C124.858 464.206 126.178 463.438 127.066 462.286V463.678C127.066 466.054 125.29 466.822 123.634 466.822C122.098 466.822 120.898 466.414 119.962 465.334L118.786 467.158C120.202 468.454 121.666 468.886 123.634 468.886ZM124.09 461.974C122.098 461.974 120.826 460.486 120.826 458.254C120.826 456.022 122.098 454.534 124.09 454.534C125.266 454.534 126.514 455.23 127.066 456.094V460.414C126.514 461.278 125.266 461.974 124.09 461.974ZM138.084 464.47C141.804 464.47 144.06 461.71 144.06 458.374C144.06 455.062 141.804 452.302 138.084 452.302C134.412 452.302 132.132 455.062 132.132 458.374C132.132 461.71 134.412 464.47 138.084 464.47ZM138.084 462.238C135.948 462.238 134.748 460.438 134.748 458.374C134.748 456.334 135.948 454.534 138.084 454.534C140.244 454.534 141.444 456.334 141.444 458.374C141.444 460.438 140.244 462.238 138.084 462.238ZM149.13 464.182V456.286C149.634 455.47 151.05 454.75 152.106 454.75C152.418 454.75 152.682 454.774 152.898 454.822V452.326C151.386 452.326 149.994 453.19 149.13 454.294V452.59H146.61V464.182H149.13ZM156.178 451.174C157.042 451.174 157.738 450.478 157.738 449.614C157.738 448.75 157.042 448.054 156.178 448.054C155.338 448.054 154.618 448.75 154.618 449.614C154.618 450.478 155.338 451.174 156.178 451.174ZM157.45 464.182V452.59H154.93V464.182H157.45ZM164.199 464.47C165.375 464.47 166.119 464.158 166.575 463.726L165.975 461.83C165.783 462.046 165.327 462.238 164.847 462.238C164.127 462.238 163.743 461.662 163.743 460.87V454.798H166.095V452.59H163.743V449.422H161.223V452.59H159.303V454.798H161.223V461.494C161.223 463.414 162.255 464.47 164.199 464.47ZM178.751 464.182V455.974C178.751 453.598 177.503 452.302 175.007 452.302C173.183 452.302 171.671 453.262 170.903 454.174V448.174H168.383V464.182H170.903V456.094C171.503 455.302 172.607 454.534 173.879 454.534C175.295 454.534 176.231 455.086 176.231 456.886V464.182H178.751ZM198.752 464.182V455.806C198.752 453.454 197.552 452.302 195.416 452.302C193.688 452.302 192.152 453.382 191.48 454.438C191.096 453.166 190.04 452.302 188.312 452.302C186.56 452.302 185.024 453.454 184.544 454.174V452.59H182.024V464.182H184.544V456.094C185.072 455.326 186.104 454.534 187.208 454.534C188.576 454.534 189.128 455.374 189.128 456.622V464.182H191.648V456.07C192.152 455.326 193.208 454.534 194.336 454.534C195.68 454.534 196.232 455.374 196.232 456.622V464.182H198.752Z" fill="#333333"/>
<path d="M20.509 88.288C23.749 88.288 25.717 86.608 26.941 84.688L24.541 83.464C23.773 84.808 22.237 85.792 20.509 85.792C17.341 85.792 14.989 83.368 14.989 80.008C14.989 76.648 17.341 74.224 20.509 74.224C22.237 74.224 23.773 75.232 24.541 76.552L26.941 75.328C25.741 73.408 23.749 71.728 20.509 71.728C15.781 71.728 12.109 75.088 12.109 80.008C12.109 84.928 15.781 88.288 20.509 88.288ZM34.3484 88.288C38.0684 88.288 40.3244 85.528 40.3244 82.192C40.3244 78.88 38.0684 76.12 34.3484 76.12C30.6764 76.12 28.3964 78.88 28.3964 82.192C28.3964 85.528 30.6764 88.288 34.3484 88.288ZM34.3484 86.056C32.2124 86.056 31.0124 84.256 31.0124 82.192C31.0124 80.152 32.2124 78.352 34.3484 78.352C36.5084 78.352 37.7084 80.152 37.7084 82.192C37.7084 84.256 36.5084 86.056 34.3484 86.056ZM59.6022 88V79.624C59.6022 77.272 58.4022 76.12 56.2662 76.12C54.5382 76.12 53.0022 77.2 52.3302 78.256C51.9462 76.984 50.8902 76.12 49.1622 76.12C47.4102 76.12 45.8742 77.272 45.3942 77.992V76.408H42.8742V88H45.3942V79.912C45.9222 79.144 46.9542 78.352 48.0582 78.352C49.4262 78.352 49.9782 79.192 49.9782 80.44V88H52.4982V79.888C53.0022 79.144 54.0582 78.352 55.1862 78.352C56.5302 78.352 57.0822 79.192 57.0822 80.44V88H59.6022ZM79.5944 88V79.624C79.5944 77.272 78.3944 76.12 76.2584 76.12C74.5304 76.12 72.9944 77.2 72.3224 78.256C71.9384 76.984 70.8824 76.12 69.1544 76.12C67.4024 76.12 65.8664 77.272 65.3864 77.992V76.408H62.8664V88H65.3864V79.912C65.9144 79.144 66.9464 78.352 68.0504 78.352C69.4184 78.352 69.9704 79.192 69.9704 80.44V88H72.4904V79.888C72.9944 79.144 74.0504 78.352 75.1784 78.352C76.5224 78.352 77.0744 79.192 77.0744 80.44V88H79.5944ZM93.2026 88V76.408H90.6826V84.544C90.0826 85.336 88.9786 86.056 87.7066 86.056C86.2906 86.056 85.3786 85.504 85.3786 83.704V76.408H82.8586V84.616C82.8586 86.992 84.0826 88.288 86.5786 88.288C88.4026 88.288 89.8426 87.4 90.6826 86.464V88H93.2026ZM106.82 88V79.84C106.82 77.464 105.572 76.12 103.076 76.12C101.252 76.12 99.7638 77.08 98.9958 77.992V76.408H96.4758V88H98.9958V79.912C99.5718 79.12 100.676 78.352 101.972 78.352C103.388 78.352 104.3 78.952 104.3 80.752V88H106.82ZM111.341 74.992C112.205 74.992 112.901 74.296 112.901 73.432C112.901 72.568 112.205 71.872 111.341 71.872C110.501 71.872 109.781 72.568 109.781 73.432C109.781 74.296 110.501 74.992 111.341 74.992ZM112.613 88V76.408H110.093V88H112.613ZM121.162 88.288C123.418 88.288 124.786 87.328 125.602 86.224L123.946 84.688C123.298 85.576 122.41 86.056 121.282 86.056C119.17 86.056 117.778 84.448 117.778 82.192C117.778 79.936 119.17 78.352 121.282 78.352C122.41 78.352 123.298 78.808 123.946 79.72L125.602 78.184C124.786 77.08 123.418 76.12 121.162 76.12C117.634 76.12 115.162 78.688 115.162 82.192C115.162 85.72 117.634 88.288 121.162 88.288ZM137.412 88V80.32C137.412 77.2 135.156 76.12 132.588 76.12C130.74 76.12 129.06 76.72 127.716 77.992L128.748 79.744C129.756 78.76 130.884 78.28 132.18 78.28C133.788 78.28 134.892 79.096 134.892 80.44V82.168C134.052 81.184 132.708 80.68 131.148 80.68C129.252 80.68 127.116 81.784 127.116 84.448C127.116 87.016 129.252 88.288 131.148 88.288C132.684 88.288 134.028 87.736 134.892 86.752V88H137.412ZM132.132 86.56C130.716 86.56 129.66 85.744 129.66 84.496C129.66 83.224 130.716 82.408 132.132 82.408C133.236 82.408 134.316 82.816 134.892 83.608V85.36C134.316 86.152 133.236 86.56 132.132 86.56ZM144.159 88.288C145.335 88.288 146.079 87.976 146.535 87.544L145.935 85.648C145.743 85.864 145.287 86.056 144.807 86.056C144.087 86.056 143.703 85.48 143.703 84.688V78.616H146.055V76.408H143.703V73.24H141.183V76.408H139.263V78.616H141.183V85.312C141.183 87.232 142.215 88.288 144.159 88.288ZM149.591 74.992C150.455 74.992 151.151 74.296 151.151 73.432C151.151 72.568 150.455 71.872 149.591 71.872C148.751 71.872 148.031 72.568 148.031 73.432C148.031 74.296 148.751 74.992 149.591 74.992ZM150.863 88V76.408H148.343V88H150.863ZM159.364 88.288C163.084 88.288 165.34 85.528 165.34 82.192C165.34 78.88 163.084 76.12 159.364 76.12C155.692 76.12 153.412 78.88 153.412 82.192C153.412 85.528 155.692 88.288 159.364 88.288ZM159.364 86.056C157.228 86.056 156.028 84.256 156.028 82.192C156.028 80.152 157.228 78.352 159.364 78.352C161.524 78.352 162.724 80.152 162.724 82.192C162.724 84.256 161.524 86.056 159.364 86.056ZM178.234 88V79.84C178.234 77.464 176.986 76.12 174.49 76.12C172.666 76.12 171.178 77.08 170.41 77.992V76.408H167.89V88H170.41V79.912C170.986 79.12 172.09 78.352 173.386 78.352C174.802 78.352 175.714 78.952 175.714 80.752V88H178.234ZM11.2945 117V109.32C11.2945 106.2 9.0385 105.12 6.4705 105.12C4.6225 105.12 2.9425 105.72 1.5985 106.992L2.6305 108.744C3.6385 107.76 4.7665 107.28 6.0625 107.28C7.6705 107.28 8.7745 108.096 8.7745 109.44V111.168C7.9345 110.184 6.5905 109.68 5.0305 109.68C3.1345 109.68 0.9985 110.784 0.9985 113.448C0.9985 116.016 3.1345 117.288 5.0305 117.288C6.5665 117.288 7.9105 116.736 8.7745 115.752V117H11.2945ZM6.0145 115.56C4.5985 115.56 3.5425 114.744 3.5425 113.496C3.5425 112.224 4.5985 111.408 6.0145 111.408C7.1185 111.408 8.1985 111.816 8.7745 112.608V114.36C8.1985 115.152 7.1185 115.56 6.0145 115.56ZM24.9057 117V108.84C24.9057 106.464 23.6577 105.12 21.1617 105.12C19.3377 105.12 17.8497 106.08 17.0817 106.992V105.408H14.5617V117H17.0817V108.912C17.6577 108.12 18.7617 107.352 20.0577 107.352C21.4737 107.352 22.3857 107.952 22.3857 109.752V117H24.9057ZM38.8589 117V100.992H36.3389V107.016C35.4029 105.792 34.0589 105.12 32.6189 105.12C29.6189 105.12 27.4589 107.472 27.4589 111.216C27.4589 115.032 29.6429 117.288 32.6189 117.288C34.1069 117.288 35.4509 116.568 36.3389 115.416V117H38.8589ZM33.3389 115.056C31.3469 115.056 30.0749 113.448 30.0749 111.216C30.0749 108.96 31.3469 107.352 33.3389 107.352C34.5389 107.352 35.7629 108.048 36.3389 108.912V113.52C35.7629 114.384 34.5389 115.056 33.3389 115.056ZM56.0403 117.288C59.2803 117.288 61.2483 115.608 62.4723 113.688L60.0723 112.464C59.3043 113.808 57.7683 114.792 56.0403 114.792C52.8723 114.792 50.5203 112.368 50.5203 109.008C50.5203 105.648 52.8723 103.224 56.0403 103.224C57.7683 103.224 59.3043 104.232 60.0723 105.552L62.4723 104.328C61.2723 102.408 59.2803 100.728 56.0403 100.728C51.3123 100.728 47.6403 104.088 47.6403 109.008C47.6403 113.928 51.3123 117.288 56.0403 117.288ZM69.8796 117.288C73.5996 117.288 75.8556 114.528 75.8556 111.192C75.8556 107.88 73.5996 105.12 69.8796 105.12C66.2076 105.12 63.9276 107.88 63.9276 111.192C63.9276 114.528 66.2076 117.288 69.8796 117.288ZM69.8796 115.056C67.7436 115.056 66.5436 113.256 66.5436 111.192C66.5436 109.152 67.7436 107.352 69.8796 107.352C72.0396 107.352 73.2396 109.152 73.2396 111.192C73.2396 113.256 72.0396 115.056 69.8796 115.056ZM80.9254 117V100.992H78.4054V117H80.9254ZM86.7145 117V100.992H84.1945V117H86.7145ZM99.5836 117V109.32C99.5836 106.2 97.3276 105.12 94.7596 105.12C92.9116 105.12 91.2316 105.72 89.8876 106.992L90.9196 108.744C91.9276 107.76 93.0556 107.28 94.3516 107.28C95.9596 107.28 97.0636 108.096 97.0636 109.44V111.168C96.2236 110.184 94.8796 109.68 93.3196 109.68C91.4236 109.68 89.2876 110.784 89.2876 113.448C89.2876 116.016 91.4236 117.288 93.3196 117.288C94.8556 117.288 96.1996 116.736 97.0636 115.752V117H99.5836ZM94.3036 115.56C92.8876 115.56 91.8316 114.744 91.8316 113.496C91.8316 112.224 92.8876 111.408 94.3036 111.408C95.4076 111.408 96.4876 111.816 97.0636 112.608V114.36C96.4876 115.152 95.4076 115.56 94.3036 115.56ZM105.371 113.52V108.936C105.923 108.072 107.171 107.352 108.347 107.352C110.363 107.352 111.635 108.96 111.635 111.216C111.635 113.472 110.363 115.056 108.347 115.056C107.171 115.056 105.923 114.384 105.371 113.52ZM105.371 117V115.416C106.259 116.568 107.579 117.288 109.091 117.288C112.043 117.288 114.227 115.032 114.227 111.216C114.227 107.472 112.067 105.12 109.091 105.12C107.627 105.12 106.283 105.792 105.371 107.016V100.992H102.851V117H105.371ZM122.028 117.288C125.748 117.288 128.004 114.528 128.004 111.192C128.004 107.88 125.748 105.12 122.028 105.12C118.356 105.12 116.076 107.88 116.076 111.192C116.076 114.528 118.356 117.288 122.028 117.288ZM122.028 115.056C119.892 115.056 118.692 113.256 118.692 111.192C118.692 109.152 119.892 107.352 122.028 107.352C124.188 107.352 125.388 109.152 125.388 111.192C125.388 113.256 124.188 115.056 122.028 115.056ZM133.074 117V109.104C133.578 108.288 134.994 107.568 136.05 107.568C136.362 107.568 136.626 107.592 136.842 107.64V105.144C135.33 105.144 133.938 106.008 133.074 107.112V105.408H130.554V117H133.074ZM148.474 117V109.32C148.474 106.2 146.218 105.12 143.65 105.12C141.802 105.12 140.122 105.72 138.778 106.992L139.81 108.744C140.818 107.76 141.946 107.28 143.242 107.28C144.85 107.28 145.954 108.096 145.954 109.44V111.168C145.114 110.184 143.77 109.68 142.21 109.68C140.314 109.68 138.178 110.784 138.178 113.448C138.178 116.016 140.314 117.288 142.21 117.288C143.746 117.288 145.09 116.736 145.954 115.752V117H148.474ZM143.194 115.56C141.778 115.56 140.722 114.744 140.722 113.496C140.722 112.224 141.778 111.408 143.194 111.408C144.298 111.408 145.378 111.816 145.954 112.608V114.36C145.378 115.152 144.298 115.56 143.194 115.56ZM155.221 117.288C156.397 117.288 157.141 116.976 157.597 116.544L156.997 114.648C156.805 114.864 156.349 115.056 155.869 115.056C155.149 115.056 154.765 114.48 154.765 113.688V107.616H157.117V105.408H154.765V102.24H152.245V105.408H150.325V107.616H152.245V114.312C152.245 116.232 153.277 117.288 155.221 117.288ZM160.653 103.992C161.517 103.992 162.213 103.296 162.213 102.432C162.213 101.568 161.517 100.872 160.653 100.872C159.813 100.872 159.093 101.568 159.093 102.432C159.093 103.296 159.813 103.992 160.653 103.992ZM161.925 117V105.408H159.405V117H161.925ZM170.427 117.288C174.147 117.288 176.403 114.528 176.403 111.192C176.403 107.88 174.147 105.12 170.427 105.12C166.755 105.12 164.475 107.88 164.475 111.192C164.475 114.528 166.755 117.288 170.427 117.288ZM170.427 115.056C168.291 115.056 167.09 113.256 167.09 111.192C167.09 109.152 168.291 107.352 170.427 107.352C172.587 107.352 173.787 109.152 173.787 111.192C173.787 113.256 172.587 115.056 170.427 115.056ZM189.296 117V108.84C189.296 106.464 188.048 105.12 185.552 105.12C183.728 105.12 182.24 106.08 181.472 106.992V105.408H178.952V117H181.472V108.912C182.048 108.12 183.152 107.352 184.448 107.352C185.864 107.352 186.776 107.952 186.776 109.752V117H189.296Z" fill="#333333"/>
<defs>
<clipPath id="clip0">
<rect width="467.209" height="456.887" fill="white" transform="translate(137 61.3379)"/>
</clipPath>
</defs>
</svg>
